<?xml version="1.0" ?><svg xmlns="http://www.w3.org/2000/svg" xmlns:xlink="http://www.w3.org/1999/xlink" id="svg" version="1.1" width="400" height="225" viewBox="0, 0, 400,225"><g id="svgg"><path id="path0" d="M0.007 112.12 L 0.01 224.25 1.40 220.42 C 8.18 201.702,17.055 181.886,25.549 166.50 C 46.82 127.968,68.216 109.750,88.000 113.32 C 102.70 115.977,112.670 121.423,127.417 134.85 C 141.59 147.755,147.484 151.548,157.167 154.00 C 174.40 158.354,189.711 154.233,218.333 137.53 C 248.24 120.083,293.301 86.735,336.500 50.08 C 338.56 48.329,343.438 44.433,347.333 41.42 C 395.11 4.481,399.915 0.735,399.970 0.36 L 400.02 0.00 200.01 0.00 L 0.00 0.00 0.01 112.12" stroke="none" fill="#1751e8" fill-rule="evenodd"/><path id="path1" d="M397.411 2.77 C 396.04 3.838,394.937 4.781,394.962 4.87 C 394.99 4.954,394.947 4.987,394.871 4.94 C 394.70 4.837,394.496 4.977,394.167 5.42 C 393.94 5.716,393.943 5.729,394.176 5.55 C 394.41 5.368,394.432 5.580,394.408 7.55 C 394.37 10.477,394.154 13.178,393.986 12.75 C 393.88 12.463,393.855 12.480,393.845 12.88 C 393.84 13.127,393.908 13.333,394.000 13.33 C 394.22 13.333,394.217 14.616,393.997 14.75 C 393.90 14.809,393.876 14.934,393.935 15.03 C 394.00 15.137,393.922 15.164,393.725 15.10 C 393.34 14.981,392.908 16.493,393.102 17.26 C 393.17 17.550,393.154 17.678,393.048 17.61 C 392.95 17.551,392.913 17.672,392.960 17.92 C 393.02 18.222,392.966 18.333,392.769 18.33 C 392.62 18.333,392.500 18.408,392.500 18.50 C 392.50 18.592,392.575 18.667,392.667 18.67 C 392.96 18.667,392.844 18.916,392.469 19.09 C 392.07 19.267,391.841 19.700,392.194 19.61 C 392.32 19.580,392.360 19.586,392.292 19.62 C 392.22 19.663,392.167 19.792,392.167 19.91 C 392.17 20.032,392.035 20.119,391.875 20.11 C 391.69 20.092,391.564 20.221,391.530 20.46 C 391.50 20.665,391.407 20.833,391.322 20.83 C 391.24 20.833,391.167 21.021,391.167 21.25 C 391.17 21.479,391.093 21.667,391.002 21.67 C 390.91 21.667,390.790 21.962,390.732 22.32 C 390.68 22.684,390.525 23.019,390.400 23.07 C 390.27 23.115,390.213 23.261,390.263 23.39 C 390.31 23.521,390.162 23.835,389.927 24.09 C 389.69 24.341,389.500 24.655,389.500 24.79 C 389.50 24.948,389.382 24.993,389.125 24.93 C 388.92 24.878,388.840 24.878,388.949 24.93 C 389.24 25.066,389.015 25.500,388.649 25.50 C 388.48 25.500,388.333 25.575,388.333 25.67 C 388.33 25.758,388.408 25.833,388.500 25.83 C 388.77 25.833,388.693 26.141,388.337 26.50 C 388.16 26.678,387.893 26.782,387.754 26.73 C 387.61 26.675,387.500 26.708,387.500 26.80 C 387.50 26.895,387.581 26.999,387.680 27.03 C 387.87 27.097,387.351 28.164,387.125 28.17 C 387.06 28.166,387.000 28.252,387.000 28.36 C 387.00 28.460,386.813 28.719,386.583 28.93 C 386.35 29.144,386.167 29.392,386.167 29.48 C 386.17 29.719,385.416 30.500,385.189 30.50 C 385.08 30.500,385.000 30.575,385.000 30.67 C 385.00 30.758,385.075 30.833,385.167 30.83 C 385.26 30.833,385.333 30.946,385.333 31.08 C 385.33 31.225,385.184 31.333,384.989 31.33 C 384.73 31.333,384.668 31.408,384.745 31.65 C 384.81 31.860,384.713 32.111,384.465 32.37 C 384.25 32.588,383.827 33.081,383.513 33.47 C 383.20 33.850,382.910 34.133,382.871 34.09 C 382.83 34.054,382.585 34.242,382.322 34.51 C 382.06 34.780,381.801 35.000,381.748 35.00 C 381.47 35.000,380.856 35.950,380.934 36.25 C 381.00 36.481,380.976 36.517,380.871 36.37 C 380.75 36.193,380.678 36.202,380.507 36.41 C 380.36 36.583,380.353 36.667,380.480 36.67 C 380.86 36.667,380.643 37.121,379.851 37.97 C 379.39 38.450,378.889 38.833,378.702 38.83 C 378.52 38.833,378.323 38.954,378.266 39.10 C 378.20 39.266,378.060 39.328,377.891 39.26 C 377.50 39.112,376.943 39.647,377.188 39.94 C 377.31 40.089,377.314 40.167,377.201 40.17 C 377.11 40.167,376.993 40.073,376.952 39.96 C 376.90 39.816,376.759 39.871,376.507 40.13 C 376.21 40.440,376.178 40.563,376.340 40.76 C 376.46 40.908,376.475 41.000,376.368 41.00 C 376.27 41.000,376.166 40.914,376.130 40.81 C 376.10 40.702,375.720 40.983,375.296 41.43 C 374.73 42.035,374.571 42.301,374.700 42.46 C 374.82 42.601,374.820 42.667,374.701 42.67 C 374.61 42.667,374.491 42.573,374.445 42.46 C 374.39 42.326,374.201 42.447,373.919 42.79 C 373.68 43.090,373.369 43.333,373.238 43.33 C 373.11 43.333,373.000 43.408,373.000 43.50 C 373.00 43.592,372.887 43.667,372.750 43.67 C 372.61 43.667,372.500 43.554,372.500 43.42 C 372.50 43.279,372.398 43.167,372.273 43.17 C 372.12 43.167,372.072 43.304,372.126 43.58 C 372.19 43.902,372.136 44.000,371.907 44.00 C 371.49 44.000,370.363 44.541,370.262 44.79 C 370.21 44.906,370.254 45.000,370.348 45.00 C 370.44 45.000,370.475 45.072,370.421 45.16 C 370.37 45.247,370.216 45.278,370.085 45.23 C 369.92 45.162,369.866 45.236,369.914 45.48 C 369.95 45.676,369.906 45.833,369.814 45.83 C 369.72 45.833,369.701 45.920,369.766 46.03 C 369.84 46.146,369.812 46.173,369.690 46.10 C 369.58 46.031,369.538 45.907,369.590 45.82 C 369.80 45.483,369.458 45.697,368.903 46.25 C 368.58 46.575,368.362 46.912,368.417 47.00 C 368.48 47.096,368.399 47.117,368.231 47.05 C 368.04 46.979,367.984 47.006,368.066 47.14 C 368.14 47.257,368.078 47.333,367.909 47.33 C 367.73 47.333,367.665 47.423,367.725 47.58 C 367.78 47.713,367.747 47.867,367.659 47.92 C 367.57 47.975,367.500 47.940,367.500 47.84 C 367.50 47.437,366.934 47.719,366.282 48.45 C 365.90 48.882,365.265 49.531,364.875 49.89 C 364.22 50.500,363.907 51.013,364.359 50.73 C 364.47 50.664,364.506 50.688,364.442 50.79 C 364.38 50.889,364.194 50.932,364.025 50.89 C 363.86 50.844,363.611 50.913,363.482 51.04 C 363.35 51.171,362.954 51.324,362.596 51.38 C 362.24 51.440,361.864 51.574,361.764 51.68 C 361.63 51.820,361.733 51.843,362.167 51.77 C 362.73 51.675,362.730 51.678,362.286 51.85 C 361.93 51.988,361.754 51.979,361.536 51.81 C 361.38 51.693,361.305 51.659,361.372 51.74 C 361.52 51.916,360.772 52.635,360.218 52.85 C 360.00 52.930,359.860 53.075,359.916 53.17 C 359.97 53.258,359.916 53.333,359.789 53.33 C 359.45 53.333,358.869 54.013,358.643 54.67 C 358.33 55.586,357.952 55.996,357.600 55.80 C 357.34 55.653,357.326 55.674,357.488 55.98 C 357.73 56.432,356.869 56.953,356.341 56.67 C 356.02 56.499,355.217 56.723,354.983 57.05 C 354.93 57.128,354.755 57.064,354.600 56.91 C 354.44 56.754,354.270 56.674,354.213 56.73 C 354.15 56.790,354.252 56.954,354.429 57.10 C 354.61 57.241,354.665 57.316,354.561 57.26 C 354.25 57.113,353.881 57.657,354.169 57.84 C 354.34 57.941,354.286 58.006,353.950 58.09 C 353.70 58.152,353.500 58.255,353.500 58.32 C 353.50 58.580,351.802 60.176,351.294 60.39 C 350.65 60.667,350.041 61.178,349.969 61.51 C 349.89 61.844,348.629 62.990,348.325 63.00 C 348.18 62.998,347.966 63.094,347.842 63.21 C 347.66 63.377,347.643 63.372,347.751 63.18 C 347.83 63.042,347.613 63.102,347.192 63.34 C 346.81 63.553,346.500 63.781,346.500 63.85 C 346.50 64.080,345.940 64.173,345.789 63.96 C 345.68 63.816,345.668 63.849,345.740 64.07 C 345.87 64.477,344.707 65.590,343.549 66.16 C 343.11 66.379,342.525 66.722,342.250 66.92 C 341.98 67.126,341.656 67.257,341.542 67.22 C 341.43 67.173,341.333 67.220,341.333 67.32 C 341.33 67.502,341.557 67.567,341.983 67.51 C 342.17 67.481,342.160 67.530,341.954 67.74 C 341.66 68.030,341.424 68.092,341.583 67.83 C 341.64 67.742,341.532 67.667,341.343 67.67 C 341.10 67.667,340.999 67.775,340.997 68.04 C 341.00 68.338,340.962 68.365,340.840 68.17 C 340.71 67.960,340.670 67.965,340.578 68.20 C 340.52 68.358,340.519 68.562,340.577 68.66 C 340.64 68.758,340.583 68.791,340.438 68.73 C 339.97 68.556,338.190 69.967,338.418 70.34 C 338.47 70.426,338.411 70.500,338.278 70.50 C 338.14 70.500,337.618 70.912,337.105 71.42 C 336.59 71.921,336.127 72.333,336.070 72.33 C 336.01 72.333,335.768 72.546,335.525 72.81 C 335.28 73.066,334.987 73.246,334.870 73.21 C 334.75 73.168,334.667 73.199,334.681 73.28 C 334.75 73.660,334.624 73.816,334.167 73.92 C 333.89 73.977,333.667 74.096,333.667 74.18 C 333.67 74.264,333.580 74.333,333.474 74.33 C 333.37 74.333,333.017 74.535,332.693 74.78 C 332.31 75.073,332.081 75.161,332.038 75.03 C 332.00 74.923,331.810 74.834,331.611 74.84 C 331.41 74.837,331.327 74.891,331.429 74.96 C 331.92 75.300,331.826 75.667,331.241 75.67 C 330.79 75.667,330.625 75.752,330.513 76.04 C 330.33 76.514,329.580 77.213,328.875 77.57 C 328.58 77.719,328.333 77.915,328.333 78.00 C 328.33 78.094,328.261 78.167,328.172 78.17 C 328.08 78.167,328.054 78.054,328.106 77.92 C 328.23 77.592,328.120 77.601,327.426 77.97 C 326.54 78.447,325.667 79.199,325.782 79.38 C 325.84 79.478,325.801 79.500,325.696 79.44 C 325.47 79.293,324.789 79.627,324.909 79.82 C 324.96 79.897,324.777 80.003,324.510 80.06 C 324.24 80.110,323.889 80.297,323.721 80.47 C 323.55 80.647,323.192 80.906,322.917 81.05 C 322.64 81.186,322.258 81.514,322.065 81.78 C 321.87 82.036,321.282 82.466,320.756 82.73 C 320.16 83.027,319.874 83.256,319.997 83.33 C 320.42 83.593,319.771 84.401,319.329 84.16 C 319.10 84.040,319.062 84.082,319.126 84.42 C 319.25 85.060,318.449 85.665,317.469 85.67 C 317.03 85.671,316.969 85.709,317.167 85.85 C 317.36 85.988,317.318 86.010,316.963 85.95 C 316.71 85.914,316.550 85.946,316.598 86.02 C 316.65 86.103,316.576 86.167,316.440 86.17 C 316.31 86.167,316.161 86.073,316.120 85.96 C 316.08 85.837,315.984 85.812,315.898 85.90 C 315.81 85.984,315.827 86.073,315.935 86.11 C 316.61 86.354,316.757 86.639,316.305 86.81 C 316.06 86.905,315.781 87.117,315.685 87.28 C 315.59 87.448,315.508 87.513,315.505 87.43 C 315.50 87.342,315.663 87.098,315.862 86.89 C 316.14 86.585,316.169 86.500,315.968 86.50 C 315.64 86.500,314.743 87.387,314.986 87.47 C 315.44 87.619,314.715 88.483,314.125 88.49 C 313.96 88.498,313.833 88.560,313.833 88.63 C 313.83 88.838,312.694 89.203,312.475 89.07 C 312.36 88.994,312.327 89.021,312.401 89.14 C 312.47 89.247,312.452 89.333,312.369 89.33 C 312.29 89.333,312.037 89.491,311.817 89.68 C 311.12 90.287,310.006 90.871,309.739 90.77 C 309.60 90.715,309.522 90.734,309.569 90.81 C 309.62 90.888,309.452 91.042,309.203 91.15 C 308.05 91.672,307.200 92.490,308.042 92.28 C 308.41 92.185,308.409 92.189,308.085 92.43 C 307.88 92.582,307.731 92.611,307.696 92.51 C 307.62 92.272,307.402 92.289,307.137 92.55 C 307.02 92.671,306.485 92.987,305.958 93.25 C 305.43 93.519,305.000 93.797,305.000 93.87 C 305.00 93.945,304.722 94.135,304.382 94.29 C 303.67 94.629,302.628 95.572,302.794 95.74 C 302.86 95.800,302.787 95.805,302.641 95.75 C 302.48 95.687,302.335 95.755,302.270 95.92 C 302.21 96.090,302.060 96.161,301.907 96.10 C 301.76 96.048,301.691 96.072,301.743 96.16 C 301.88 96.372,301.332 96.869,301.070 96.77 C 300.93 96.714,300.884 96.772,300.943 96.92 C 301.00 97.085,300.926 97.167,300.709 97.17 C 300.20 97.167,299.324 97.517,299.426 97.68 C 299.48 97.763,299.409 97.788,299.276 97.74 C 299.14 97.686,298.895 97.790,298.725 97.97 C 298.56 98.145,298.173 98.415,297.875 98.57 C 297.58 98.718,297.333 98.913,297.333 99.00 C 297.33 99.085,297.240 99.120,297.125 99.08 C 297.01 99.032,296.729 99.166,296.500 99.37 C 295.74 100.065,294.247 101.119,293.864 101.24 C 293.38 101.393,291.512 102.942,291.373 103.30 C 291.15 103.888,290.484 104.336,290.126 104.14 C 289.90 104.025,289.756 104.022,289.687 104.13 C 289.63 104.227,289.301 104.355,288.958 104.42 C 288.61 104.484,288.333 104.603,288.333 104.68 C 288.33 104.763,288.072 104.938,287.752 105.07 C 287.31 105.256,287.197 105.384,287.280 105.60 C 287.36 105.812,287.331 105.852,287.169 105.75 C 287.00 105.649,286.971 105.704,287.041 105.97 C 287.09 106.172,287.067 106.333,286.984 106.33 C 286.90 106.333,286.833 106.439,286.833 106.57 C 286.83 107.245,284.815 108.623,284.140 108.41 C 283.86 108.318,283.746 108.485,283.820 108.89 C 283.83 108.974,283.647 108.989,283.402 108.93 C 283.04 108.838,282.977 108.866,283.057 109.08 C 283.11 109.217,283.080 109.333,282.986 109.33 C 282.89 109.333,282.545 109.518,282.213 109.74 C 281.88 109.968,281.549 110.113,281.472 110.07 C 281.40 110.019,281.333 110.082,281.333 110.21 C 281.33 110.494,280.310 110.872,279.896 110.74 C 279.64 110.653,279.627 110.667,279.833 110.81 C 280.04 110.965,280.023 110.995,279.718 111.00 C 279.52 110.999,279.307 111.075,279.250 111.17 C 279.19 111.258,278.997 111.333,278.814 111.33 C 278.63 111.333,278.526 111.407,278.582 111.50 C 278.64 111.589,278.581 111.623,278.455 111.58 C 278.17 111.466,277.298 112.308,277.445 112.55 C 277.51 112.646,277.470 112.668,277.356 112.60 C 277.25 112.531,277.216 112.388,277.283 112.28 C 277.35 112.172,277.182 112.225,276.910 112.40 C 276.33 112.767,275.119 114.008,275.229 114.12 C 275.47 114.359,274.679 114.760,274.076 114.70 C 273.58 114.658,273.325 114.728,273.049 114.99 C 272.85 115.178,272.594 115.333,272.489 115.33 C 272.38 115.333,272.339 115.442,272.390 115.58 C 272.45 115.728,272.403 115.786,272.263 115.73 C 272.14 115.685,271.926 115.764,271.783 115.91 C 271.64 116.050,271.478 116.167,271.422 116.17 C 271.37 116.167,271.166 116.310,270.978 116.48 C 270.79 116.660,270.174 117.045,269.610 117.34 C 268.58 117.879,267.667 118.602,267.667 118.87 C 267.67 118.954,267.760 118.963,267.875 118.89 C 268.01 118.812,268.005 118.866,267.851 119.06 C 267.72 119.213,267.582 119.304,267.536 119.26 C 267.49 119.213,267.257 119.396,267.018 119.67 C 266.66 120.068,263.737 121.756,263.292 121.82 C 263.22 121.826,263.004 121.833,262.806 121.83 C 262.61 121.833,262.494 121.883,262.555 121.94 C 262.62 122.004,262.347 122.197,261.958 122.37 C 261.31 122.662,261.277 122.710,261.547 122.91 C 261.81 123.102,261.813 123.139,261.580 123.23 C 261.44 123.284,261.358 123.262,261.409 123.18 C 261.55 122.949,261.120 122.864,260.804 123.06 C 260.54 123.220,260.543 123.245,260.804 123.45 C 261.04 123.637,261.014 123.644,260.614 123.50 C 260.02 123.287,260.000 123.289,260.000 123.56 C 260.00 123.819,258.911 124.064,258.023 124.01 C 257.69 123.986,257.503 124.037,257.565 124.14 C 257.62 124.228,257.836 124.267,258.042 124.22 C 258.26 124.181,258.179 124.258,257.856 124.41 C 257.55 124.550,257.191 124.667,257.064 124.67 C 256.94 124.667,256.833 124.737,256.833 124.82 C 256.83 124.985,256.182 125.259,255.946 125.20 C 255.87 125.175,255.851 125.227,255.903 125.31 C 255.99 125.445,255.636 125.693,255.306 125.74 C 255.04 125.770,254.944 126.029,255.148 126.16 C 255.30 126.251,255.314 126.326,255.184 126.41 C 255.08 126.468,255.000 126.440,255.000 126.34 C 255.00 126.246,254.887 126.167,254.750 126.17 C 254.61 126.167,254.500 126.092,254.500 126.00 C 254.50 125.908,254.417 125.833,254.316 125.83 C 254.21 125.833,254.171 125.938,254.220 126.07 C 254.27 126.203,254.033 126.548,253.643 126.90 C 253.15 127.344,253.003 127.580,253.081 127.83 C 253.17 128.104,252.975 128.259,251.807 128.85 C 250.97 129.270,250.406 129.467,250.368 129.35 C 250.33 129.250,250.154 129.167,249.968 129.17 C 249.74 129.167,249.662 129.246,249.724 129.41 C 249.79 129.570,249.736 129.619,249.575 129.56 C 249.44 129.506,249.333 129.552,249.333 129.66 C 249.33 129.766,249.267 129.812,249.186 129.76 C 248.99 129.640,248.000 129.992,248.000 130.18 C 248.00 130.266,247.887 130.333,247.750 130.33 C 247.61 130.333,247.500 130.456,247.500 130.61 C 247.50 130.934,247.031 131.321,246.625 131.33 C 246.47 131.331,246.333 131.393,246.333 131.47 C 246.33 131.648,245.168 132.057,245.034 131.92 C 244.97 131.864,245.037 131.745,245.171 131.66 C 245.52 131.442,245.217 131.462,244.800 131.69 C 244.52 131.833,244.501 131.898,244.686 132.01 C 244.86 132.124,244.817 132.162,244.531 132.16 C 244.03 132.167,243.536 132.438,242.932 133.04 C 242.66 133.310,242.254 133.602,242.020 133.69 C 241.71 133.810,241.653 133.888,241.815 133.99 C 241.96 134.075,241.973 134.163,241.865 134.23 C 241.77 134.288,241.667 134.250,241.632 134.15 C 241.59 134.015,241.311 134.068,240.763 134.31 C 240.32 134.506,239.855 134.667,239.729 134.67 C 239.60 134.667,239.500 134.742,239.500 134.83 C 239.50 134.925,239.317 135.000,239.093 135.00 C 238.87 135.000,238.640 135.075,238.583 135.17 C 238.53 135.258,238.369 135.333,238.232 135.33 C 238.10 135.333,237.819 135.512,237.617 135.73 C 237.41 135.948,237.099 136.159,236.916 136.20 C 236.73 136.238,236.601 136.356,236.623 136.46 C 236.65 136.568,236.562 136.616,236.438 136.57 C 236.16 136.462,235.167 137.274,235.167 137.61 C 235.17 137.743,235.092 137.807,235.000 137.75 C 234.90 137.691,234.831 137.847,234.828 138.12 C 234.82 138.509,234.791 138.544,234.620 138.33 C 234.31 137.947,232.500 137.982,232.500 138.38 C 232.50 138.575,232.369 138.667,232.083 138.67 C 231.85 138.667,231.667 138.738,231.667 138.83 C 231.67 138.913,231.411 139.106,231.098 139.25 C 230.79 139.402,230.392 139.681,230.223 139.87 C 230.01 140.113,229.996 140.182,230.167 140.09 C 230.30 140.018,230.193 140.174,229.920 140.44 C 229.65 140.701,229.366 140.898,229.295 140.88 C 229.18 140.838,229.106 141.068,229.139 141.35 C 229.16 141.536,226.479 142.694,226.242 142.60 C 226.12 142.555,225.966 142.586,225.912 142.67 C 225.86 142.762,225.701 142.833,225.564 142.83 C 225.43 142.833,225.360 142.758,225.417 142.67 C 225.47 142.575,225.403 142.500,225.260 142.50 C 225.12 142.500,225.000 142.425,225.000 142.33 C 225.00 142.242,224.916 142.167,224.814 142.17 C 224.71 142.167,224.660 142.337,224.703 142.56 C 224.76 142.878,224.719 142.939,224.473 142.87 C 224.30 142.830,224.167 142.728,224.167 142.65 C 224.17 142.566,224.092 142.500,224.000 142.50 C 223.91 142.500,223.833 142.650,223.833 142.83 C 223.83 143.078,223.722 143.167,223.417 143.17 C 223.19 143.167,223.000 143.250,223.000 143.35 C 223.00 143.464,222.841 143.496,222.594 143.43 C 222.37 143.378,222.141 143.407,222.084 143.50 C 222.03 143.591,221.805 143.667,221.591 143.67 C 221.38 143.667,221.159 143.779,221.106 143.92 C 221.05 144.054,220.863 144.167,220.682 144.17 C 220.50 144.167,220.307 144.242,220.250 144.33 C 220.19 144.425,220.009 144.500,219.841 144.50 C 219.67 144.500,219.492 144.612,219.440 144.75 C 219.39 144.887,219.210 145.002,219.047 145.00 C 218.47 145.016,218.086 145.450,218.350 145.79 C 218.56 146.052,218.554 146.061,218.313 145.87 C 218.03 145.656,217.500 145.751,217.500 146.02 C 217.50 146.100,217.387 146.167,217.250 146.17 C 217.11 146.167,216.999 146.260,216.998 146.38 C 216.99 146.886,214.328 147.833,212.895 147.83 C 212.86 147.833,212.833 147.938,212.833 148.06 C 212.83 148.192,212.710 148.286,212.560 148.27 C 212.41 148.260,212.249 148.354,212.205 148.48 C 212.16 148.623,212.197 148.668,212.312 148.60 C 212.41 148.533,212.500 148.568,212.500 148.68 C 212.50 148.782,212.397 148.830,212.271 148.78 C 212.14 148.732,211.890 148.900,211.694 149.17 C 211.27 149.739,210.537 149.926,209.742 149.66 C 209.06 149.439,208.106 149.582,208.509 149.85 C 208.68 149.963,208.614 149.979,208.292 149.90 C 207.94 149.821,207.833 149.858,207.833 150.06 C 207.83 150.224,207.695 150.333,207.492 150.33 C 207.30 150.333,206.977 150.521,206.765 150.75 C 206.55 150.979,206.283 151.167,206.166 151.17 C 206.05 151.167,205.860 151.294,205.746 151.45 C 205.57 151.686,205.297 151.726,204.118 151.69 C 202.79 151.648,202.538 151.700,201.667 152.19 C 201.53 152.272,201.304 152.387,201.167 152.45 C 200.57 152.728,200.241 153.172,200.502 153.36 C 200.71 153.504,200.706 153.518,200.469 153.44 C 200.31 153.392,200.152 153.442,200.107 153.55 C 200.05 153.699,200.023 153.697,200.013 153.54 C 200.00 153.253,199.667 153.278,199.667 153.57 C 199.67 153.747,199.287 153.822,198.042 153.89 C 197.15 153.933,196.079 154.046,195.667 154.14 C 195.25 154.228,194.471 154.383,193.926 154.48 C 192.85 154.675,192.498 154.913,192.456 155.47 C 192.43 155.862,192.036 156.067,191.624 155.91 C 191.48 155.855,191.318 155.891,191.257 155.99 C 191.20 156.087,191.058 156.166,190.948 156.16 C 190.83 156.163,190.845 156.101,190.995 156.01 C 191.46 155.710,190.999 155.616,190.377 155.88 C 190.03 156.029,189.487 156.196,189.167 156.25 C 188.19 156.428,188.000 156.512,188.000 156.76 C 188.00 157.023,187.800 157.052,187.041 156.90 C 186.65 156.822,186.558 156.729,186.623 156.48 C 186.72 156.100,186.251 156.039,186.106 156.42 C 186.05 156.554,185.887 156.667,185.736 156.67 C 185.58 156.667,185.209 156.888,184.901 157.16 C 184.59 157.429,184.058 157.697,183.712 157.75 C 183.37 157.812,182.971 157.901,182.833 157.95 C 182.70 158.004,182.346 158.031,182.056 158.01 C 181.71 157.989,181.476 158.073,181.372 158.26 C 181.23 158.506,180.953 158.531,179.024 158.47 C 177.54 158.419,176.833 158.453,176.831 158.57 C 176.83 158.697,176.792 158.698,176.706 158.57 C 176.60 158.424,171.672 158.271,166.391 158.25 C 165.92 158.251,165.618 158.191,165.724 158.12 C 165.83 158.047,165.654 158.025,165.333 158.07 C 162.96 158.406,162.829 158.395,160.917 157.67 C 159.63 157.185,159.238 157.143,156.997 157.25 C 155.72 157.310,154.602 157.313,154.512 157.26 C 154.28 157.115,154.485 156.667,154.780 156.67 C 155.12 156.667,154.704 156.254,154.201 156.09 C 154.00 156.030,153.833 155.900,153.833 155.80 C 153.83 155.709,153.725 155.673,153.592 155.72 C 153.43 155.786,153.381 155.736,153.443 155.57 C 153.50 155.426,153.433 155.333,153.268 155.33 C 153.12 155.333,153.000 155.275,153.000 155.20 C 153.00 154.810,151.972 154.500,150.671 154.50 C 149.48 154.500,149.244 154.449,148.765 154.08 C 148.46 153.854,148.158 153.667,148.084 153.67 C 147.69 153.667,143.476 151.550,143.361 151.29 C 143.33 151.223,143.171 151.167,143.007 151.17 C 142.84 151.167,142.614 151.054,142.500 150.92 C 142.39 150.779,142.189 150.667,142.063 150.67 C 141.94 150.667,141.833 150.592,141.833 150.50 C 141.83 150.408,141.748 150.333,141.644 150.33 C 141.54 150.333,141.281 150.146,141.069 149.92 C 140.86 149.688,140.613 149.500,140.527 149.50 C 140.17 149.500,138.728 148.585,138.250 148.06 C 137.86 147.625,137.050 147.283,136.794 147.44 C 136.69 147.506,136.664 147.473,136.734 147.36 C 136.81 147.229,136.675 147.165,136.302 147.16 C 135.68 147.155,135.124 146.807,135.063 146.39 C 135.04 146.240,134.936 146.063,134.830 146.00 C 134.72 145.933,134.645 145.832,134.652 145.77 C 134.70 145.439,134.641 145.333,134.417 145.33 C 134.28 145.333,134.166 145.277,134.166 145.21 C 134.16 144.599,132.145 143.345,131.540 143.58 C 131.42 143.624,131.362 143.589,131.418 143.50 C 131.47 143.407,131.457 143.333,131.381 143.33 C 131.15 143.333,129.667 141.900,129.667 141.68 C 129.67 141.559,129.558 141.506,129.425 141.56 C 129.26 141.619,129.214 141.570,129.276 141.41 C 129.33 141.259,129.267 141.167,129.101 141.17 C 128.95 141.167,128.833 141.046,128.833 140.90 C 128.83 140.740,128.740 140.667,128.604 140.72 C 128.46 140.773,128.383 140.701,128.396 140.53 C 128.41 140.375,128.326 140.268,128.214 140.29 C 128.10 140.311,128.049 140.232,128.095 140.11 C 128.18 139.898,127.112 138.667,126.843 138.67 C 126.77 138.667,126.659 138.554,126.606 138.42 C 126.55 138.279,126.396 138.167,126.255 138.17 C 126.11 138.167,126.000 138.108,126.000 138.04 C 126.00 137.964,125.756 137.764,125.458 137.59 C 125.16 137.418,124.854 137.172,124.778 137.04 C 124.68 136.878,124.581 136.864,124.425 136.99 C 124.27 137.122,124.153 137.101,123.999 136.91 C 123.82 136.700,123.830 136.676,124.060 136.76 C 124.40 136.895,124.416 136.606,124.083 136.27 C 123.95 136.136,123.833 135.943,123.833 135.84 C 123.83 135.747,123.758 135.667,123.667 135.67 C 123.58 135.667,123.500 135.563,123.500 135.44 C 123.50 135.311,123.388 135.114,123.250 135.00 C 123.11 134.886,123.000 134.666,123.000 134.51 C 123.00 134.123,122.076 133.269,121.779 133.38 C 121.51 133.487,120.500 132.205,120.500 131.75 C 120.50 131.604,120.425 131.527,120.333 131.58 C 120.24 131.640,120.167 131.569,120.167 131.43 C 120.17 131.284,120.092 131.167,120.000 131.17 C 119.91 131.167,119.833 131.057,119.833 130.92 C 119.83 130.670,119.195 130.230,118.938 130.31 C 118.86 130.328,118.838 130.228,118.894 130.08 C 118.95 129.922,118.915 129.838,118.789 129.87 C 118.68 129.893,118.583 129.853,118.583 129.78 C 118.58 129.704,118.452 129.570,118.292 129.48 C 118.13 129.390,118.000 129.170,118.000 128.99 C 118.00 128.813,117.926 128.667,117.837 128.67 C 117.75 128.667,117.628 128.488,117.573 128.27 C 117.45 127.787,116.463 126.797,116.146 126.84 C 115.63 126.913,115.401 126.838,115.652 126.68 C 115.78 126.598,116.006 126.576,116.152 126.63 C 116.38 126.718,116.379 126.694,116.137 126.45 C 115.98 126.294,115.786 126.167,115.699 126.17 C 115.61 126.167,115.542 125.985,115.542 125.76 C 115.54 125.469,115.611 125.386,115.798 125.46 C 115.97 125.523,116.013 125.490,115.934 125.36 C 115.86 125.250,115.644 125.208,115.420 125.26 C 115.10 125.343,115.016 125.290,114.972 124.99 C 114.94 124.785,114.768 124.535,114.587 124.43 C 114.41 124.333,114.181 124.169,114.087 124.07 C 113.52 123.468,111.852 122.528,111.803 122.78 C 111.76 123.020,111.720 123.015,111.500 122.74 C 111.36 122.567,111.339 122.489,111.458 122.56 C 111.57 122.630,111.664 122.626,111.661 122.55 C 111.64 122.080,104.715 118.464,101.250 117.12 C 84.57 110.623,73.717 111.799,60.664 121.51 C 51.76 128.140,41.336 140.360,32.948 154.00 C 23.64 169.130,16.064 184.168,8.205 203.08 C 4.65 211.640,0.000 223.927,0.000 224.76 C 0.00 224.968,27.054 225.000,200.000 225.00 L 400.00 225.00 400.00 112.92 C 400.00 51.271,399.979 0.833,399.952 0.83 C 399.93 0.833,398.782 1.706,397.411 2.77 M390.231 24.74 C 390.18 24.872,389.957 25.099,389.736 25.24 C 389.34 25.501,389.142 25.971,389.526 25.73 C 389.65 25.657,389.673 25.689,389.590 25.82 C 389.50 25.971,389.412 25.978,389.281 25.85 C 389.15 25.717,389.260 25.505,389.675 25.09 C 390.33 24.428,390.356 24.413,390.231 24.74 M385.948 31.12 C 385.91 31.285,385.872 31.154,385.872 30.83 C 385.87 30.512,385.906 30.381,385.948 30.54 C 385.99 30.702,385.990 30.965,385.948 31.12 M381.892 35.59 C 381.84 35.728,381.634 35.928,381.439 36.03 C 381.12 36.199,381.131 36.171,381.500 35.78 C 381.99 35.265,382.022 35.248,381.892 35.59 M268.667 118.32 C 268.67 118.520,268.342 118.730,268.222 118.61 C 268.10 118.492,268.313 118.167,268.510 118.17 C 268.60 118.167,268.667 118.237,268.667 118.32 M248.500 130.33 C 248.29 130.517,248.078 130.667,248.032 130.67 C 247.99 130.667,248.084 130.517,248.250 130.33 C 248.42 130.150,248.627 130.000,248.718 130.00 C 248.81 130.000,248.711 130.150,248.500 130.33 M123.667 136.01 C 123.67 136.292,123.350 136.176,123.160 135.82 C 122.99 135.504,123.004 135.491,123.321 135.66 C 123.51 135.762,123.667 135.917,123.667 136.01 M124.942 137.76 C 125.09 138.148,124.931 138.194,124.701 137.83 C 124.57 137.620,124.561 137.500,124.670 137.50 C 124.77 137.500,124.888 137.616,124.942 137.76 M170.715 159.29 C 170.15 159.322,169.171 159.323,168.549 159.29 C 167.93 159.258,168.392 159.232,169.583 159.23 C 170.78 159.231,171.284 159.257,170.715 159.29 M173.460 159.28 C 173.30 159.323,173.001 159.324,172.794 159.28 C 172.59 159.245,172.717 159.211,173.083 159.21 C 173.45 159.207,173.620 159.239,173.460 159.28" stroke="none" fill="#f1f3f9" fill-rule="evenodd"/><path id="path2" d="M394.069 5.36 C 393.99 5.486,394.021 5.507,394.167 5.42 C 394.31 5.327,394.345 5.347,394.264 5.48 C 394.20 5.584,394.078 5.632,393.998 5.58 C 393.83 5.476,372.292 22.075,371.969 22.56 C 371.91 22.657,371.892 22.794,371.938 22.87 C 372.01 22.984,371.781 23.064,371.479 23.03 C 371.42 23.020,371.379 23.292,371.383 23.63 C 371.40 24.488,370.994 25.259,370.559 25.21 C 370.36 25.194,370.021 25.395,369.733 25.71 C 369.32 26.166,369.311 26.196,369.667 25.91 L 370.08 25.58 369.78 25.94 C 369.61 26.141,369.292 26.349,369.067 26.41 C 368.73 26.491,368.687 26.560,368.830 26.83 C 369.04 27.225,369.044 27.333,368.833 27.33 C 368.74 27.333,368.665 27.202,368.663 27.04 C 368.66 26.603,368.083 27.404,367.736 28.33 C 367.58 28.746,367.391 29.155,367.311 29.24 C 367.02 29.562,367.177 29.709,367.500 29.42 C 367.68 29.251,367.833 29.169,367.833 29.24 C 367.83 29.445,367.339 29.862,367.038 29.91 C 366.88 29.929,366.750 30.016,366.750 30.10 C 366.75 30.504,364.354 32.862,364.094 32.71 C 364.00 32.658,363.973 32.675,364.041 32.75 C 364.11 32.826,363.829 33.221,363.416 33.63 C 363.00 34.034,362.667 34.434,362.667 34.52 C 362.67 34.599,362.610 34.668,362.542 34.67 C 362.29 34.678,361.182 35.793,361.298 35.92 C 361.36 35.991,361.242 36.006,361.029 35.95 C 360.75 35.885,360.664 35.920,360.725 36.08 C 360.77 36.199,360.627 36.469,360.405 36.68 C 360.17 36.901,360.000 36.971,360.000 36.85 C 360.00 36.630,358.419 37.854,358.038 38.37 C 357.92 38.522,357.715 38.761,357.580 38.90 C 357.44 39.032,357.333 39.214,357.333 39.30 C 357.33 39.586,356.875 39.875,356.797 39.64 C 356.74 39.481,356.699 39.479,356.604 39.63 C 356.54 39.743,356.560 39.833,356.657 39.83 C 357.02 39.833,356.812 40.108,356.292 40.30 C 355.71 40.521,354.667 41.391,354.667 41.66 C 354.67 41.749,354.572 41.787,354.457 41.74 C 354.22 41.650,352.560 43.117,352.629 43.36 C 352.65 43.452,352.613 43.487,352.538 43.44 C 352.46 43.393,352.066 43.620,351.658 43.94 C 350.75 44.664,350.080 45.024,349.929 44.87 C 349.87 44.811,349.856 44.870,349.904 45.01 C 349.96 45.163,349.758 45.395,349.330 45.66 C 348.96 45.883,348.667 46.127,348.667 46.20 C 348.67 46.273,348.579 46.333,348.471 46.33 C 348.36 46.333,348.158 46.441,348.013 46.57 C 347.87 46.703,347.524 46.927,347.250 47.07 C 346.98 47.214,346.848 47.332,346.968 47.33 C 347.09 47.333,347.144 47.401,347.093 47.48 C 347.04 47.567,346.864 47.600,346.697 47.56 C 346.50 47.505,346.097 47.745,345.548 48.24 C 345.08 48.657,344.623 49.000,344.528 49.00 C 344.43 49.000,344.309 49.148,344.251 49.33 C 344.13 49.696,342.877 50.833,342.586 50.83 C 342.22 50.833,340.408 52.133,339.841 52.80 C 339.52 53.172,339.205 53.440,339.132 53.40 C 339.06 53.350,339.000 53.398,339.000 53.50 C 339.00 53.602,338.923 53.639,338.829 53.58 C 338.74 53.523,338.679 53.575,338.704 53.70 C 338.73 53.819,338.631 53.897,338.481 53.87 C 338.33 53.849,338.122 53.937,338.013 54.07 C 337.85 54.266,337.880 54.294,338.199 54.23 C 338.48 54.171,338.455 54.211,338.083 54.38 C 337.81 54.515,337.527 54.589,337.458 54.55 C 337.39 54.512,337.333 54.550,337.333 54.63 C 337.33 54.719,336.996 54.917,336.583 55.08 C 336.17 55.232,335.732 55.504,335.610 55.68 C 335.49 55.855,335.339 55.950,335.281 55.89 C 335.11 55.724,334.667 56.176,334.667 56.52 C 334.67 56.707,334.581 56.790,334.439 56.74 C 334.31 56.688,334.033 56.859,333.814 57.12 C 333.26 57.771,332.285 58.498,330.875 59.31 C 330.21 59.700,329.667 60.086,329.667 60.17 C 329.67 60.262,329.554 60.333,329.417 60.33 C 329.28 60.333,329.167 60.390,329.167 60.46 C 329.17 60.529,328.786 60.760,328.321 60.97 C 327.79 61.216,327.506 61.442,327.558 61.58 C 327.61 61.703,327.526 61.783,327.362 61.77 C 327.18 61.757,327.101 61.855,327.136 62.06 C 327.17 62.245,327.118 62.323,327.010 62.26 C 326.91 62.195,326.788 62.258,326.735 62.40 C 326.68 62.533,326.552 62.617,326.445 62.58 C 326.34 62.547,326.068 62.748,325.845 63.03 C 325.45 63.533,325.446 63.539,325.804 63.43 C 326.02 63.357,326.167 63.382,326.167 63.49 C 326.17 63.587,326.035 63.672,325.875 63.68 C 325.63 63.688,325.633 63.711,325.917 63.83 C 326.20 63.945,326.106 64.032,325.273 64.42 C 324.55 64.758,324.263 64.823,324.170 64.67 C 324.08 64.520,323.885 64.552,323.398 64.80 C 322.59 65.218,321.477 66.161,321.587 66.34 C 321.63 66.412,321.336 66.599,320.930 66.75 C 320.52 66.909,320.022 67.215,319.816 67.44 C 319.61 67.654,319.354 67.833,319.247 67.83 C 319.14 67.833,318.918 67.982,318.754 68.16 C 318.59 68.344,318.390 68.452,318.311 68.40 C 318.23 68.354,318.167 68.455,318.167 68.63 C 318.17 69.032,317.570 69.569,316.856 69.81 C 316.41 69.959,316.324 69.954,316.440 69.78 C 316.52 69.664,316.471 69.684,316.333 69.83 C 315.94 70.234,314.430 71.277,313.682 71.66 C 313.31 71.850,313.000 72.080,313.000 72.17 C 313.00 72.260,312.847 72.333,312.659 72.33 C 312.47 72.333,312.131 72.521,311.902 72.75 C 311.67 72.979,311.444 73.167,311.395 73.17 C 311.35 73.167,310.805 73.608,310.194 74.15 C 309.58 74.686,308.652 75.368,308.125 75.66 C 307.60 75.957,307.167 76.266,307.167 76.35 C 307.17 76.432,307.079 76.500,306.973 76.50 C 306.69 76.500,305.500 77.045,305.500 77.18 C 305.50 77.237,305.087 77.417,304.583 77.58 C 304.08 77.735,303.708 77.932,303.760 78.02 C 303.81 78.099,303.792 78.167,303.718 78.17 C 303.46 78.171,301.659 79.937,301.783 80.06 C 301.85 80.129,301.774 80.134,301.613 80.07 C 301.42 79.998,301.337 80.031,301.368 80.17 C 301.39 80.281,301.312 80.413,301.185 80.46 C 301.04 80.510,300.999 80.470,301.069 80.36 C 301.18 80.172,300.484 80.576,299.454 81.29 C 299.16 81.495,298.710 81.746,298.458 81.85 C 298.21 81.949,298.000 82.100,298.000 82.18 C 298.00 82.266,297.854 82.333,297.677 82.33 C 297.50 82.333,297.306 82.410,297.248 82.50 C 297.19 82.596,297.088 82.638,297.021 82.60 C 296.95 82.554,296.760 82.703,296.592 82.93 C 296.42 83.150,296.185 83.333,296.060 83.33 C 295.94 83.333,295.833 83.413,295.833 83.51 C 295.83 83.607,295.756 83.639,295.663 83.58 C 295.57 83.523,295.502 83.537,295.516 83.61 C 295.58 84.004,295.480 84.340,295.321 84.24 C 295.22 84.182,294.953 84.360,294.723 84.64 C 294.48 84.929,294.203 85.106,294.068 85.05 C 293.94 85.005,293.833 85.060,293.833 85.18 C 293.83 85.293,293.784 85.340,293.724 85.28 C 293.58 85.136,293.145 85.497,293.252 85.67 C 293.30 85.743,293.195 85.766,293.026 85.72 C 292.83 85.670,292.488 85.858,292.067 86.25 C 291.71 86.592,291.417 86.843,291.417 86.81 C 291.42 86.738,288.636 88.825,288.413 89.07 C 288.32 89.167,288.118 89.325,287.965 89.42 C 287.81 89.508,287.064 90.068,286.302 90.66 C 277.00 97.896,258.916 111.082,247.667 118.83 C 212.84 142.822,188.735 154.671,173.074 155.50 C 156.41 156.371,146.217 151.979,129.324 136.65 C 123.93 131.750,123.045 130.969,120.750 129.07 C 118.07 126.850,116.138 125.413,115.833 125.42 C 115.70 125.416,115.595 125.342,115.609 125.25 C 115.62 125.158,115.466 124.957,115.260 124.80 C 114.89 124.530,114.886 124.533,114.961 124.93 C 115.00 125.151,115.143 125.333,115.269 125.33 C 115.49 125.333,115.568 125.527,115.512 125.96 C 115.50 126.073,115.569 126.167,115.671 126.17 C 115.77 126.167,115.976 126.285,116.120 126.43 C 116.33 126.636,116.333 126.686,116.150 126.66 C 115.63 126.587,115.400 126.661,115.652 126.82 C 115.78 126.902,115.992 126.929,116.121 126.88 C 116.42 126.765,117.442 127.745,117.573 128.27 C 117.63 128.488,117.747 128.667,117.837 128.67 C 117.93 128.667,118.000 128.813,118.000 128.99 C 118.00 129.170,118.107 129.377,118.238 129.45 C 118.37 129.523,118.487 129.658,118.499 129.75 C 118.51 129.842,118.628 129.895,118.758 129.87 C 118.91 129.837,118.960 129.911,118.894 130.08 C 118.84 130.228,118.858 130.328,118.938 130.31 C 119.19 130.230,119.833 130.670,119.833 130.92 C 119.83 131.057,119.908 131.167,120.000 131.17 C 120.09 131.167,120.167 131.284,120.167 131.43 C 120.17 131.569,120.242 131.640,120.333 131.58 C 120.42 131.527,120.500 131.604,120.500 131.75 C 120.50 132.205,121.507 133.487,121.779 133.38 C 122.08 133.269,123.000 134.123,123.000 134.51 C 123.00 134.666,123.112 134.886,123.250 135.00 C 123.39 135.114,123.500 135.311,123.500 135.44 C 123.50 135.563,123.575 135.667,123.667 135.67 C 123.76 135.667,123.833 135.747,123.833 135.84 C 123.83 135.943,123.946 136.136,124.083 136.27 C 124.42 136.606,124.402 136.895,124.060 136.76 C 123.83 136.676,123.820 136.700,123.999 136.91 C 124.15 137.101,124.269 137.122,124.425 136.99 C 124.58 136.864,124.678 136.878,124.778 137.04 C 124.85 137.172,125.160 137.418,125.458 137.59 C 125.76 137.764,126.000 137.964,126.000 138.04 C 126.00 138.108,126.115 138.167,126.255 138.17 C 126.40 138.167,126.554 138.279,126.606 138.42 C 126.66 138.554,126.766 138.667,126.843 138.67 C 127.11 138.667,128.178 139.898,128.095 140.11 C 128.05 140.232,128.103 140.311,128.214 140.29 C 128.33 140.268,128.407 140.375,128.396 140.53 C 128.38 140.701,128.462 140.773,128.604 140.72 C 128.74 140.667,128.833 140.740,128.833 140.90 C 128.83 141.046,128.954 141.167,129.101 141.17 C 129.27 141.167,129.334 141.259,129.276 141.41 C 129.21 141.570,129.264 141.619,129.425 141.56 C 129.56 141.506,129.667 141.559,129.667 141.68 C 129.67 141.900,131.148 143.333,131.381 143.33 C 131.46 143.333,131.474 143.407,131.418 143.50 C 131.36 143.589,131.417 143.624,131.540 143.58 C 132.15 143.345,134.164 144.599,134.166 145.21 C 134.17 145.277,134.279 145.333,134.417 145.33 C 134.64 145.333,134.697 145.439,134.652 145.77 C 134.65 145.832,134.725 145.933,134.830 146.00 C 134.94 146.063,135.040 146.240,135.063 146.39 C 135.12 146.807,135.684 147.155,136.302 147.16 C 136.68 147.165,136.815 147.229,136.734 147.36 C 136.66 147.473,136.688 147.506,136.794 147.44 C 137.05 147.283,137.861 147.625,138.250 148.06 C 138.73 148.585,140.170 149.500,140.527 149.50 C 140.61 149.500,140.856 149.687,141.069 149.92 C 141.28 150.146,141.540 150.333,141.644 150.33 C 141.75 150.333,141.833 150.408,141.833 150.50 C 141.83 150.592,141.937 150.667,142.063 150.67 C 142.19 150.667,142.386 150.779,142.500 150.92 C 142.61 151.054,142.842 151.167,143.007 151.17 C 143.17 151.167,143.331 151.223,143.361 151.29 C 143.48 151.550,147.685 153.667,148.084 153.67 C 148.16 153.667,148.464 153.854,148.765 154.08 C 149.24 154.449,149.477 154.500,150.671 154.50 C 151.97 154.500,153.000 154.810,153.000 155.20 C 153.00 155.275,153.121 155.333,153.268 155.33 C 153.43 155.333,153.500 155.426,153.443 155.57 C 153.38 155.736,153.430 155.786,153.592 155.72 C 153.72 155.673,153.833 155.709,153.833 155.80 C 153.83 155.900,153.999 156.030,154.201 156.09 C 154.70 156.254,155.121 156.667,154.780 156.67 C 154.49 156.667,154.282 157.115,154.512 157.26 C 154.60 157.313,155.721 157.310,156.997 157.25 C 159.24 157.143,159.628 157.185,160.917 157.67 C 162.83 158.395,162.957 158.406,165.333 158.07 C 165.65 158.025,165.830 158.047,165.724 158.12 C 165.62 158.191,165.918 158.251,166.391 158.25 C 171.67 158.271,176.602 158.424,176.706 158.57 C 176.79 158.698,176.829 158.697,176.831 158.57 C 176.83 158.453,177.543 158.419,179.024 158.47 C 180.95 158.531,181.234 158.506,181.372 158.26 C 181.48 158.073,181.709 157.989,182.056 158.01 C 182.35 158.031,182.696 158.004,182.833 157.95 C 182.97 157.901,183.366 157.812,183.712 157.75 C 184.06 157.697,184.593 157.429,184.901 157.16 C 185.21 156.888,185.584 156.667,185.736 156.67 C 185.89 156.667,186.054 156.554,186.106 156.42 C 186.25 156.039,186.723 156.100,186.623 156.48 C 186.56 156.729,186.652 156.822,187.041 156.90 C 187.80 157.052,188.000 157.023,188.000 156.76 C 188.00 156.512,188.193 156.428,189.167 156.25 C 189.49 156.196,190.032 156.029,190.377 155.88 C 191.00 155.616,191.464 155.710,190.995 156.01 C 190.84 156.101,190.827 156.163,190.948 156.16 C 191.06 156.166,191.195 156.089,191.254 155.99 C 191.31 155.898,191.495 155.862,191.657 155.91 C 192.10 156.053,192.426 155.870,192.457 155.47 C 192.50 154.913,192.854 154.674,193.926 154.48 C 194.47 154.383,195.254 154.228,195.667 154.14 C 196.08 154.046,197.148 153.933,198.042 153.89 C 199.29 153.822,199.667 153.747,199.667 153.57 C 199.67 153.277,199.942 153.259,200.056 153.54 C 200.12 153.700,200.144 153.701,200.154 153.55 C 200.16 153.431,200.291 153.384,200.458 153.44 C 200.70 153.516,200.709 153.502,200.502 153.36 C 200.19 153.138,200.955 152.402,201.833 152.07 C 201.97 152.018,202.221 151.901,202.390 151.81 C 202.56 151.719,203.336 151.665,204.118 151.69 C 205.30 151.726,205.574 151.686,205.746 151.45 C 205.86 151.294,206.049 151.167,206.166 151.17 C 206.28 151.167,206.552 150.979,206.765 150.75 C 206.98 150.521,207.304 150.333,207.492 150.33 C 207.69 150.333,207.833 150.224,207.833 150.06 C 207.83 149.858,207.938 149.821,208.292 149.90 C 208.61 149.979,208.678 149.963,208.509 149.85 C 208.11 149.582,209.059 149.439,209.742 149.66 C 210.54 149.926,211.270 149.739,211.694 149.17 C 211.89 148.900,212.143 148.732,212.271 148.78 C 212.40 148.830,212.500 148.782,212.500 148.68 C 212.50 148.568,212.415 148.533,212.312 148.60 C 212.20 148.668,212.155 148.623,212.205 148.48 C 212.25 148.354,212.409 148.260,212.560 148.27 C 212.71 148.286,212.833 148.192,212.833 148.06 C 212.83 147.938,212.861 147.833,212.895 147.83 C 214.33 147.833,216.993 146.886,216.998 146.38 C 217.00 146.260,217.112 146.167,217.250 146.17 C 217.39 146.167,217.500 146.100,217.500 146.02 C 217.50 145.751,218.035 145.656,218.313 145.87 C 218.55 146.061,218.558 146.052,218.350 145.79 C 218.09 145.450,218.473 145.016,219.047 145.00 C 219.21 145.002,219.387 144.887,219.440 144.75 C 219.49 144.613,219.673 144.500,219.841 144.50 C 220.01 144.500,220.193 144.425,220.250 144.33 C 220.31 144.242,220.501 144.167,220.682 144.17 C 220.86 144.167,221.054 144.054,221.106 143.92 C 221.16 143.779,221.377 143.667,221.591 143.67 C 221.81 143.667,222.027 143.591,222.084 143.50 C 222.14 143.407,222.370 143.378,222.594 143.43 C 222.84 143.496,223.000 143.464,223.000 143.35 C 223.00 143.250,223.188 143.167,223.417 143.17 C 223.72 143.167,223.833 143.078,223.833 142.83 C 223.83 142.650,223.908 142.500,224.000 142.50 C 224.09 142.500,224.167 142.566,224.167 142.65 C 224.17 142.728,224.304 142.830,224.473 142.87 C 224.72 142.939,224.764 142.878,224.703 142.56 C 224.66 142.337,224.708 142.167,224.814 142.17 C 224.92 142.167,225.000 142.242,225.000 142.33 C 225.00 142.425,225.117 142.500,225.260 142.50 C 225.40 142.500,225.473 142.575,225.417 142.67 C 225.36 142.758,225.426 142.833,225.564 142.83 C 225.70 142.833,225.858 142.762,225.912 142.67 C 225.97 142.586,226.115 142.555,226.242 142.60 C 226.48 142.694,229.161 141.536,229.139 141.35 C 229.11 141.068,229.181 140.838,229.295 140.88 C 229.37 140.898,229.647 140.701,229.920 140.44 C 230.19 140.174,230.304 140.018,230.167 140.09 C 230.00 140.182,230.014 140.113,230.223 139.87 C 230.39 139.681,230.786 139.402,231.098 139.25 C 231.41 139.106,231.667 138.913,231.667 138.83 C 231.67 138.738,231.854 138.667,232.083 138.67 C 232.37 138.667,232.500 138.575,232.500 138.38 C 232.50 137.982,234.306 137.947,234.620 138.33 C 234.79 138.544,234.824 138.509,234.828 138.12 C 234.83 137.847,234.904 137.691,235.000 137.75 C 235.09 137.807,235.167 137.743,235.167 137.61 C 235.17 137.274,236.160 136.462,236.438 136.57 C 236.56 136.616,236.645 136.568,236.623 136.46 C 236.60 136.356,236.733 136.238,236.916 136.20 C 237.10 136.159,237.415 135.948,237.617 135.73 C 237.82 135.512,238.096 135.333,238.232 135.33 C 238.37 135.333,238.527 135.258,238.583 135.17 C 238.64 135.075,238.869 135.000,239.093 135.00 C 239.32 135.000,239.500 134.925,239.500 134.83 C 239.50 134.742,239.603 134.667,239.729 134.67 C 239.85 134.667,240.314 134.509,240.750 134.32 C 241.34 134.053,241.573 134.016,241.667 134.17 C 241.75 134.298,241.829 134.309,241.897 134.20 C 241.96 134.105,241.908 133.994,241.793 133.95 C 241.67 133.906,241.764 133.801,242.014 133.70 C 242.25 133.606,242.665 133.310,242.932 133.04 C 243.54 132.438,244.029 132.167,244.531 132.16 C 244.82 132.162,244.857 132.124,244.686 132.01 C 244.50 131.898,244.523 131.833,244.800 131.69 C 245.22 131.462,245.517 131.442,245.171 131.66 C 245.04 131.745,244.975 131.864,245.034 131.92 C 245.17 132.057,246.333 131.648,246.333 131.47 C 246.33 131.393,246.465 131.331,246.625 131.33 C 247.03 131.321,247.500 130.934,247.500 130.61 C 247.50 130.456,247.612 130.333,247.750 130.33 C 247.89 130.333,248.000 130.266,248.000 130.18 C 248.00 129.992,248.989 129.640,249.186 129.76 C 249.27 129.812,249.333 129.766,249.333 129.66 C 249.33 129.552,249.442 129.506,249.575 129.56 C 249.74 129.619,249.786 129.570,249.724 129.41 C 249.66 129.246,249.742 129.167,249.968 129.17 C 250.15 129.167,250.333 129.250,250.368 129.35 C 250.41 129.467,250.965 129.270,251.807 128.85 C 252.97 128.259,253.169 128.104,253.081 127.83 C 253.00 127.580,253.146 127.344,253.643 126.90 C 254.03 126.548,254.273 126.203,254.220 126.07 C 254.17 125.938,254.214 125.833,254.316 125.83 C 254.42 125.833,254.500 125.908,254.500 126.00 C 254.50 126.092,254.612 126.167,254.750 126.17 C 254.89 126.167,255.000 126.246,255.000 126.34 C 255.00 126.440,255.083 126.468,255.184 126.41 C 255.31 126.326,255.303 126.251,255.148 126.16 C 254.94 126.029,255.042 125.770,255.306 125.74 C 255.64 125.693,255.986 125.445,255.903 125.31 C 255.85 125.227,255.870 125.175,255.946 125.20 C 256.18 125.259,256.833 124.985,256.833 124.82 C 256.83 124.737,256.937 124.667,257.064 124.67 C 257.19 124.667,257.547 124.550,257.856 124.41 C 258.18 124.258,258.258 124.181,258.042 124.22 C 257.84 124.267,257.621 124.228,257.565 124.14 C 257.50 124.037,257.687 123.986,258.023 124.01 C 258.91 124.064,260.000 123.819,260.000 123.56 C 260.00 123.289,260.016 123.287,260.614 123.50 C 261.01 123.644,261.042 123.637,260.804 123.45 C 260.54 123.245,260.543 123.220,260.804 123.06 C 261.12 122.864,261.551 122.949,261.409 123.18 C 261.36 123.262,261.435 123.284,261.580 123.23 C 261.81 123.139,261.809 123.102,261.547 122.91 C 261.28 122.710,261.313 122.662,261.958 122.37 C 262.35 122.197,262.616 122.004,262.555 121.94 C 262.46 121.853,263.074 121.774,263.208 121.86 C 263.37 121.961,266.670 120.059,267.018 119.67 C 267.26 119.396,267.490 119.213,267.536 119.26 C 267.58 119.304,267.724 119.213,267.851 119.06 C 268.00 118.866,268.013 118.812,267.875 118.89 C 267.76 118.963,267.667 118.954,267.667 118.87 C 267.67 118.602,268.582 117.879,269.610 117.34 C 270.17 117.045,270.790 116.660,270.978 116.48 C 271.17 116.310,271.365 116.167,271.422 116.17 C 271.48 116.167,271.641 116.050,271.783 115.91 C 271.93 115.764,272.142 115.685,272.263 115.73 C 272.40 115.786,272.449 115.728,272.390 115.58 C 272.34 115.442,272.384 115.333,272.489 115.33 C 272.59 115.333,272.846 115.178,273.049 114.99 C 273.32 114.728,273.581 114.658,274.076 114.70 C 274.68 114.760,275.470 114.359,275.229 114.12 C 275.12 114.008,276.331 112.767,276.910 112.40 C 277.18 112.225,277.349 112.172,277.283 112.28 C 277.22 112.388,277.249 112.531,277.356 112.60 C 277.47 112.668,277.507 112.646,277.445 112.55 C 277.30 112.308,278.172 111.466,278.455 111.58 C 278.58 111.623,278.638 111.589,278.582 111.50 C 278.53 111.407,278.630 111.333,278.814 111.33 C 279.00 111.333,279.193 111.258,279.250 111.17 C 279.31 111.075,279.517 110.999,279.718 111.00 C 280.02 110.995,280.042 110.965,279.833 110.81 C 279.63 110.667,279.638 110.653,279.896 110.74 C 280.31 110.872,281.333 110.494,281.333 110.21 C 281.33 110.082,281.396 110.019,281.472 110.07 C 281.55 110.113,281.882 109.968,282.213 109.74 C 282.55 109.518,282.892 109.333,282.986 109.33 C 283.08 109.333,283.112 109.217,283.057 109.08 C 282.98 108.866,283.044 108.838,283.402 108.93 C 283.65 108.989,283.835 108.974,283.820 108.89 C 283.75 108.485,283.856 108.318,284.140 108.41 C 284.81 108.623,286.833 107.245,286.833 106.57 C 286.83 106.439,286.901 106.333,286.984 106.33 C 287.07 106.333,287.093 106.172,287.041 105.97 C 286.97 105.704,287.003 105.649,287.169 105.75 C 287.33 105.852,287.361 105.812,287.280 105.60 C 287.20 105.384,287.311 105.256,287.752 105.07 C 288.07 104.938,288.333 104.763,288.333 104.68 C 288.33 104.603,288.614 104.484,288.958 104.42 C 289.30 104.355,289.629 104.227,289.687 104.13 C 289.76 104.022,289.902 104.025,290.126 104.14 C 290.46 104.323,291.333 103.763,291.333 103.37 C 291.33 103.156,292.256 102.316,292.387 102.41 C 292.45 102.461,292.465 102.452,292.422 102.39 C 292.32 102.256,293.426 101.379,293.886 101.23 C 294.25 101.117,295.753 100.049,296.500 99.37 C 296.73 99.166,297.010 99.032,297.125 99.08 C 297.24 99.120,297.333 99.085,297.333 99.00 C 297.33 98.913,297.577 98.718,297.875 98.57 C 298.17 98.415,298.556 98.145,298.725 97.97 C 298.89 97.790,299.143 97.686,299.276 97.74 C 299.41 97.788,299.476 97.763,299.426 97.68 C 299.32 97.517,300.197 97.167,300.709 97.17 C 300.93 97.167,301.004 97.085,300.943 96.92 C 300.88 96.772,300.930 96.714,301.070 96.77 C 301.33 96.869,301.877 96.372,301.743 96.16 C 301.69 96.072,301.765 96.048,301.907 96.10 C 302.06 96.161,302.207 96.090,302.270 95.92 C 302.33 95.755,302.479 95.687,302.641 95.75 C 302.79 95.805,302.856 95.800,302.794 95.74 C 302.63 95.572,303.666 94.629,304.382 94.29 C 304.72 94.135,305.000 93.945,305.000 93.87 C 305.00 93.797,305.431 93.519,305.958 93.25 C 306.49 92.987,307.016 92.671,307.137 92.55 C 307.40 92.289,307.618 92.272,307.696 92.51 C 307.73 92.611,307.883 92.582,308.085 92.43 C 308.41 92.189,308.408 92.185,308.042 92.28 C 307.20 92.490,308.045 91.672,309.203 91.15 C 309.45 91.042,309.617 90.888,309.569 90.81 C 309.52 90.734,309.598 90.715,309.739 90.77 C 310.01 90.871,311.124 90.287,311.817 89.68 C 312.04 89.491,312.286 89.333,312.369 89.33 C 312.45 89.333,312.466 89.247,312.401 89.14 C 312.33 89.021,312.355 88.994,312.475 89.07 C 312.69 89.203,313.833 88.838,313.833 88.63 C 313.83 88.560,313.965 88.498,314.125 88.49 C 314.71 88.483,315.439 87.619,314.986 87.47 C 314.74 87.387,315.643 86.500,315.968 86.50 C 316.17 86.500,316.145 86.585,315.862 86.89 C 315.66 87.098,315.502 87.342,315.505 87.43 C 315.51 87.513,315.589 87.448,315.685 87.28 C 315.78 87.117,316.060 86.905,316.305 86.81 C 316.76 86.639,316.606 86.354,315.935 86.11 C 315.83 86.073,315.812 85.984,315.898 85.90 C 315.98 85.812,316.077 85.837,316.120 85.96 C 316.16 86.073,316.305 86.167,316.440 86.17 C 316.58 86.167,316.647 86.103,316.598 86.02 C 316.55 85.946,316.714 85.914,316.963 85.95 C 317.32 86.010,317.362 85.988,317.167 85.85 C 316.97 85.709,317.033 85.671,317.469 85.67 C 318.45 85.665,319.249 85.060,319.126 84.42 C 319.06 84.082,319.096 84.040,319.329 84.16 C 319.75 84.391,320.402 83.582,319.997 83.33 C 319.87 83.256,320.163 83.027,320.756 82.73 C 321.28 82.466,321.871 82.036,322.065 81.78 C 322.26 81.514,322.642 81.186,322.917 81.05 C 323.19 80.906,323.554 80.647,323.721 80.47 C 323.89 80.297,324.244 80.110,324.510 80.06 C 324.78 80.003,324.956 79.897,324.909 79.82 C 324.79 79.627,325.467 79.293,325.696 79.44 C 325.80 79.500,325.839 79.478,325.782 79.38 C 325.67 79.199,326.543 78.447,327.426 77.97 C 328.12 77.601,328.231 77.592,328.106 77.92 C 328.05 78.054,328.083 78.167,328.172 78.17 C 328.26 78.167,328.333 78.094,328.333 78.00 C 328.33 77.915,328.577 77.719,328.875 77.57 C 329.58 77.213,330.329 76.514,330.513 76.04 C 330.62 75.752,330.791 75.667,331.241 75.67 C 331.83 75.667,331.924 75.300,331.429 74.96 C 331.33 74.891,331.406 74.837,331.611 74.84 C 331.81 74.834,332.002 74.923,332.038 75.03 C 332.08 75.161,332.312 75.073,332.693 74.78 C 333.02 74.535,333.368 74.333,333.474 74.33 C 333.58 74.333,333.667 74.264,333.667 74.18 C 333.67 74.096,333.892 73.977,334.167 73.92 C 334.62 73.816,334.749 73.660,334.681 73.28 C 334.67 73.199,334.752 73.168,334.870 73.21 C 334.99 73.246,335.282 73.066,335.525 72.81 C 335.77 72.546,336.014 72.333,336.070 72.33 C 336.13 72.333,336.593 71.921,337.105 71.42 C 337.62 70.912,338.145 70.500,338.278 70.50 C 338.41 70.500,338.474 70.426,338.418 70.34 C 338.20 69.976,339.967 68.555,340.421 68.73 C 340.57 68.785,340.617 68.732,340.560 68.58 C 340.43 68.235,340.671 67.905,340.852 68.19 C 340.96 68.356,340.996 68.316,340.997 68.04 C 341.00 67.775,341.099 67.667,341.343 67.67 C 341.53 67.667,341.640 67.742,341.583 67.83 C 341.42 68.092,341.661 68.030,341.954 67.74 C 342.16 67.530,342.167 67.481,341.983 67.51 C 341.56 67.567,341.333 67.502,341.333 67.32 C 341.33 67.220,341.427 67.173,341.542 67.22 C 341.66 67.257,341.975 67.126,342.250 66.92 C 342.52 66.722,343.110 66.379,343.549 66.16 C 344.71 65.590,345.873 64.477,345.740 64.07 C 345.67 63.849,345.683 63.816,345.789 63.96 C 345.94 64.171,346.500 64.082,346.500 63.85 C 346.50 63.662,347.490 63.141,347.655 63.24 C 347.74 63.296,347.857 63.263,347.915 63.17 C 347.97 63.076,348.146 62.998,348.302 63.00 C 348.62 62.990,349.890 61.858,349.969 61.51 C 350.06 61.086,350.891 60.497,351.249 60.60 C 351.52 60.671,351.536 60.655,351.333 60.51 C 351.12 60.362,351.120 60.338,351.364 60.34 C 351.63 60.333,353.500 58.578,353.500 58.33 C 353.50 58.258,353.702 58.152,353.950 58.09 C 354.29 58.006,354.341 57.941,354.169 57.84 C 353.88 57.657,354.255 57.113,354.561 57.26 C 354.67 57.316,354.605 57.241,354.429 57.10 C 354.25 56.954,354.155 56.790,354.213 56.73 C 354.27 56.674,354.444 56.754,354.600 56.91 C 354.75 57.064,354.927 57.128,354.983 57.05 C 355.22 56.723,356.020 56.499,356.341 56.67 C 356.87 56.953,357.731 56.432,357.488 55.98 C 357.33 55.674,357.339 55.653,357.600 55.80 C 357.95 55.996,358.332 55.586,358.643 54.67 C 358.87 54.013,359.450 53.333,359.789 53.33 C 359.92 53.333,359.973 53.258,359.916 53.17 C 359.86 53.075,359.995 52.930,360.218 52.85 C 360.77 52.635,361.522 51.916,361.372 51.74 C 361.31 51.659,361.379 51.693,361.536 51.81 C 361.75 51.979,361.933 51.988,362.286 51.85 C 362.73 51.678,362.725 51.675,362.167 51.77 C 361.73 51.843,361.630 51.820,361.764 51.68 C 361.86 51.574,362.238 51.440,362.596 51.38 C 362.95 51.324,363.353 51.171,363.482 51.04 C 363.61 50.913,363.855 50.844,364.025 50.89 C 364.19 50.932,364.382 50.889,364.442 50.79 C 364.51 50.688,364.472 50.664,364.359 50.73 C 363.91 51.013,364.222 50.500,364.875 49.89 C 365.26 49.531,365.898 48.882,366.282 48.45 C 366.93 47.719,367.500 47.437,367.500 47.84 C 367.50 47.940,367.572 47.975,367.659 47.92 C 367.75 47.867,367.777 47.713,367.725 47.58 C 367.67 47.423,367.733 47.333,367.909 47.33 C 368.08 47.333,368.139 47.257,368.066 47.14 C 367.98 47.006,368.037 46.979,368.231 47.05 C 368.40 47.117,368.476 47.096,368.417 47.00 C 368.36 46.912,368.581 46.575,368.903 46.25 C 369.46 45.697,369.800 45.483,369.590 45.82 C 369.54 45.907,369.582 46.031,369.690 46.10 C 369.81 46.173,369.840 46.146,369.766 46.03 C 369.70 45.920,369.722 45.833,369.814 45.83 C 369.91 45.833,369.951 45.676,369.914 45.48 C 369.87 45.236,369.915 45.162,370.085 45.23 C 370.22 45.278,370.367 45.247,370.421 45.16 C 370.48 45.072,370.443 45.000,370.348 45.00 C 370.25 45.000,370.215 44.906,370.262 44.79 C 370.36 44.541,371.489 44.000,371.907 44.00 C 372.14 44.000,372.187 43.902,372.126 43.58 C 372.07 43.304,372.121 43.167,372.273 43.17 C 372.40 43.167,372.500 43.279,372.500 43.42 C 372.50 43.554,372.613 43.667,372.750 43.67 C 372.89 43.667,373.000 43.592,373.000 43.50 C 373.00 43.408,373.107 43.333,373.238 43.33 C 373.37 43.333,373.675 43.090,373.919 42.79 C 374.20 42.447,374.392 42.326,374.445 42.46 C 374.49 42.573,374.606 42.667,374.701 42.67 C 374.82 42.667,374.820 42.601,374.700 42.46 C 374.57 42.301,374.725 42.035,375.296 41.43 C 375.72 40.983,376.095 40.702,376.130 40.81 C 376.17 40.914,376.272 41.000,376.368 41.00 C 376.48 41.000,376.464 40.908,376.340 40.76 C 376.18 40.563,376.211 40.440,376.507 40.13 C 376.76 39.871,376.899 39.816,376.952 39.96 C 376.99 40.073,377.106 40.167,377.201 40.17 C 377.31 40.167,377.310 40.089,377.188 39.94 C 376.94 39.647,377.498 39.112,377.891 39.26 C 378.06 39.328,378.203 39.266,378.266 39.10 C 378.32 38.954,378.519 38.833,378.702 38.83 C 378.89 38.833,379.395 38.450,379.851 37.97 C 380.64 37.121,380.863 36.667,380.480 36.67 C 380.35 36.667,380.362 36.583,380.507 36.41 C 380.68 36.202,380.750 36.193,380.871 36.37 C 380.98 36.517,380.995 36.481,380.934 36.25 C 380.86 35.950,381.473 35.000,381.748 35.00 C 381.80 35.000,382.060 34.780,382.322 34.51 C 382.58 34.242,382.832 34.054,382.871 34.09 C 382.91 34.133,383.199 33.850,383.513 33.47 C 383.83 33.081,384.255 32.588,384.465 32.37 C 384.71 32.111,384.811 31.860,384.745 31.65 C 384.67 31.408,384.725 31.333,384.989 31.33 C 385.18 31.333,385.333 31.225,385.333 31.08 C 385.33 30.946,385.258 30.833,385.167 30.83 C 385.07 30.833,385.000 30.758,385.000 30.67 C 385.00 30.575,385.085 30.500,385.189 30.50 C 385.42 30.500,386.167 29.719,386.167 29.48 C 386.17 29.392,386.354 29.144,386.583 28.93 C 386.81 28.719,387.000 28.460,387.000 28.36 C 387.00 28.252,387.056 28.166,387.125 28.17 C 387.35 28.164,387.873 27.097,387.680 27.03 C 387.58 26.999,387.500 26.895,387.500 26.80 C 387.50 26.708,387.614 26.675,387.754 26.73 C 387.89 26.782,388.156 26.678,388.337 26.50 C 388.69 26.141,388.768 25.833,388.500 25.83 C 388.41 25.833,388.333 25.758,388.333 25.67 C 388.33 25.575,388.475 25.500,388.649 25.50 C 389.01 25.500,389.243 25.066,388.949 24.93 C 388.84 24.878,388.919 24.878,389.125 24.93 C 389.38 24.993,389.500 24.948,389.500 24.79 C 389.50 24.655,389.692 24.341,389.927 24.09 C 390.16 23.835,390.313 23.521,390.263 23.39 C 390.21 23.261,390.275 23.115,390.400 23.07 C 390.52 23.019,390.675 22.684,390.732 22.32 C 390.79 21.962,390.911 21.667,391.002 21.67 C 391.09 21.667,391.167 21.479,391.167 21.25 C 391.17 21.021,391.236 20.833,391.322 20.83 C 391.41 20.833,391.501 20.665,391.530 20.46 C 391.56 20.221,391.690 20.092,391.875 20.11 C 392.04 20.119,392.167 20.032,392.167 19.91 C 392.17 19.792,392.223 19.663,392.292 19.62 C 392.36 19.586,392.317 19.580,392.194 19.61 C 391.84 19.700,392.067 19.267,392.469 19.09 C 392.84 18.916,392.962 18.667,392.667 18.67 C 392.57 18.667,392.500 18.592,392.500 18.50 C 392.50 18.408,392.621 18.333,392.769 18.33 C 392.97 18.333,393.018 18.222,392.960 17.92 C 392.91 17.672,392.947 17.551,393.048 17.61 C 393.15 17.678,393.173 17.550,393.102 17.26 C 392.91 16.493,393.344 14.981,393.725 15.10 C 393.92 15.164,394.001 15.137,393.935 15.03 C 393.88 14.934,393.904 14.809,393.997 14.75 C 394.22 14.616,394.219 13.333,394.000 13.33 C 393.91 13.333,393.839 13.127,393.845 12.88 C 393.86 12.480,393.875 12.463,393.986 12.75 C 394.15 13.179,394.373 10.474,394.408 7.53 C 394.43 5.439,394.350 4.903,394.069 5.36 M389.675 25.09 C 389.26 25.505,389.150 25.717,389.281 25.85 C 389.41 25.978,389.498 25.971,389.590 25.82 C 389.67 25.689,389.650 25.657,389.526 25.73 C 389.14 25.971,389.344 25.501,389.736 25.24 C 389.96 25.099,390.180 24.872,390.231 24.74 C 390.36 24.413,390.332 24.428,389.675 25.09 M368.434 28.30 C 368.19 28.545,368.188 28.520,368.377 28.02 C 368.52 27.637,368.601 27.555,368.641 27.75 C 368.67 27.910,368.580 28.158,368.434 28.30 M385.872 30.83 C 385.87 31.154,385.906 31.285,385.948 31.12 C 385.99 30.965,385.990 30.702,385.948 30.54 C 385.91 30.381,385.872 30.512,385.872 30.83 M381.500 35.78 C 381.13 36.171,381.124 36.199,381.439 36.03 C 381.63 35.928,381.838 35.728,381.892 35.59 C 382.02 35.248,381.987 35.265,381.500 35.78 M268.243 118.34 C 268.18 118.442,268.173 118.562,268.222 118.61 C 268.34 118.730,268.667 118.520,268.667 118.32 C 268.67 118.111,268.379 118.125,268.243 118.34 M248.250 130.33 C 248.08 130.517,247.986 130.667,248.032 130.67 C 248.08 130.667,248.289 130.517,248.500 130.33 C 248.71 130.150,248.809 130.000,248.718 130.00 C 248.63 130.000,248.416 130.150,248.250 130.33 M123.160 135.82 C 123.35 136.176,123.667 136.292,123.667 136.01 C 123.67 135.917,123.511 135.762,123.321 135.66 C 123.00 135.491,122.991 135.504,123.160 135.82 M124.701 137.83 C 124.93 138.194,125.092 138.148,124.942 137.76 C 124.89 137.616,124.766 137.500,124.670 137.50 C 124.56 137.500,124.572 137.620,124.701 137.83 M168.549 159.29 C 169.17 159.323,170.146 159.322,170.715 159.29 C 171.28 159.257,170.775 159.231,169.583 159.23 C 168.39 159.232,167.926 159.258,168.549 159.29 M172.794 159.28 C 173.00 159.324,173.301 159.323,173.460 159.28 C 173.62 159.239,173.450 159.207,173.083 159.21 C 172.72 159.211,172.586 159.245,172.794 159.28" stroke="none" fill="#f0f8fa" fill-rule="evenodd"/><path id="path3" d="M367.655 25.72 C 365.40 27.480,359.103 32.363,353.655 36.58 C 340.03 47.111,340.593 46.666,335.750 50.76 C 323.82 60.854,303.499 77.390,296.777 82.48 C 296.24 82.886,295.765 83.318,295.718 83.44 C 295.67 83.564,295.576 83.630,295.508 83.59 C 295.44 83.547,295.101 83.772,294.755 84.09 C 294.41 84.407,294.078 84.669,294.021 84.67 C 293.65 84.687,292.807 85.621,293.069 85.72 C 293.22 85.781,293.310 85.764,293.260 85.68 C 293.15 85.501,293.574 85.129,293.724 85.28 C 293.78 85.340,293.833 85.293,293.833 85.18 C 293.83 85.060,293.939 85.005,294.068 85.05 C 294.20 85.106,294.482 84.929,294.723 84.64 C 294.95 84.360,295.207 84.172,295.286 84.22 C 295.37 84.269,295.526 84.090,295.645 83.82 C 295.76 83.553,295.957 83.333,296.074 83.33 C 296.19 83.333,296.424 83.150,296.592 82.93 C 296.76 82.703,296.953 82.554,297.021 82.60 C 297.09 82.638,297.191 82.596,297.248 82.50 C 297.31 82.410,297.499 82.333,297.677 82.33 C 297.85 82.333,298.000 82.266,298.000 82.18 C 298.00 82.100,298.206 81.949,298.458 81.85 C 298.71 81.746,299.159 81.495,299.454 81.29 C 300.48 80.576,301.183 80.172,301.069 80.36 C 301.00 80.470,301.044 80.510,301.185 80.46 C 301.31 80.413,301.395 80.281,301.368 80.17 C 301.34 80.031,301.422 79.998,301.613 80.07 C 301.77 80.134,301.851 80.129,301.783 80.06 C 301.66 79.937,303.465 78.171,303.718 78.17 C 303.79 78.167,303.811 78.099,303.760 78.02 C 303.71 77.932,304.079 77.735,304.583 77.58 C 305.09 77.417,305.500 77.237,305.500 77.18 C 305.50 77.045,306.688 76.500,306.973 76.50 C 307.08 76.500,307.167 76.432,307.167 76.35 C 307.17 76.266,307.598 75.957,308.125 75.66 C 308.65 75.368,309.583 74.686,310.194 74.15 C 310.81 73.608,311.345 73.167,311.395 73.17 C 311.44 73.167,311.672 72.979,311.902 72.75 C 312.13 72.521,312.472 72.333,312.659 72.33 C 312.85 72.333,313.000 72.260,313.000 72.17 C 313.00 72.080,313.307 71.850,313.682 71.66 C 314.43 71.277,315.939 70.234,316.333 69.83 C 316.47 69.684,316.519 69.664,316.440 69.78 C 316.32 69.954,316.406 69.959,316.856 69.81 C 317.57 69.569,318.167 69.032,318.167 68.63 C 318.17 68.455,318.232 68.354,318.311 68.40 C 318.39 68.452,318.590 68.344,318.754 68.16 C 318.92 67.982,319.139 67.833,319.247 67.83 C 319.35 67.833,319.610 67.654,319.816 67.44 C 320.02 67.215,320.523 66.909,320.930 66.75 C 321.34 66.599,321.632 66.412,321.587 66.34 C 321.48 66.161,322.588 65.218,323.398 64.80 C 323.88 64.552,324.076 64.520,324.170 64.67 C 324.26 64.823,324.547 64.758,325.273 64.42 C 326.11 64.032,326.201 63.945,325.917 63.83 C 325.63 63.711,325.627 63.688,325.875 63.68 C 326.04 63.672,326.167 63.587,326.167 63.49 C 326.17 63.382,326.022 63.357,325.804 63.43 C 325.45 63.539,325.447 63.533,325.845 63.03 C 326.07 62.748,326.338 62.547,326.445 62.58 C 326.55 62.617,326.682 62.533,326.735 62.40 C 326.79 62.258,326.912 62.195,327.010 62.26 C 327.12 62.323,327.168 62.245,327.136 62.06 C 327.10 61.855,327.178 61.757,327.362 61.77 C 327.53 61.783,327.606 61.703,327.558 61.58 C 327.51 61.442,327.793 61.216,328.321 60.97 C 328.79 60.760,329.167 60.529,329.167 60.46 C 329.17 60.390,329.279 60.333,329.417 60.33 C 329.55 60.333,329.667 60.262,329.667 60.17 C 329.67 60.086,330.210 59.700,330.875 59.31 C 332.29 58.498,333.257 57.771,333.814 57.12 C 334.03 56.859,334.314 56.688,334.439 56.74 C 334.58 56.790,334.667 56.707,334.667 56.52 C 334.67 56.176,335.113 55.724,335.281 55.89 C 335.34 55.950,335.487 55.855,335.610 55.68 C 335.73 55.504,336.170 55.232,336.583 55.08 C 337.00 54.917,337.333 54.719,337.333 54.63 C 337.33 54.550,337.390 54.512,337.458 54.55 C 337.53 54.589,337.808 54.515,338.083 54.38 C 338.45 54.211,338.484 54.171,338.199 54.23 C 337.88 54.294,337.847 54.268,338.017 54.06 C 338.13 53.928,338.319 53.856,338.439 53.90 C 338.56 53.948,338.772 53.822,338.912 53.62 C 339.05 53.423,339.167 53.325,339.167 53.41 C 339.17 53.485,339.485 53.202,339.875 52.77 C 340.57 52.018,342.222 50.833,342.589 50.83 C 342.88 50.833,344.135 49.694,344.251 49.33 C 344.31 49.148,344.433 49.000,344.528 49.00 C 344.62 49.000,345.082 48.657,345.548 48.24 C 346.10 47.745,346.501 47.505,346.697 47.56 C 346.86 47.600,347.042 47.567,347.093 47.48 C 347.14 47.401,347.088 47.333,346.968 47.33 C 346.85 47.332,346.975 47.214,347.250 47.07 C 347.52 46.927,347.868 46.703,348.013 46.57 C 348.16 46.441,348.364 46.333,348.471 46.33 C 348.58 46.333,348.667 46.273,348.667 46.20 C 348.67 46.127,348.965 45.883,349.330 45.66 C 349.76 45.395,349.961 45.163,349.904 45.01 C 349.86 44.870,349.867 44.811,349.929 44.87 C 350.08 45.024,350.751 44.664,351.658 43.94 C 352.07 43.620,352.462 43.393,352.538 43.44 C 352.61 43.487,352.654 43.452,352.629 43.36 C 352.56 43.117,354.216 41.650,354.457 41.74 C 354.57 41.787,354.667 41.749,354.667 41.66 C 354.67 41.412,355.683 40.543,356.250 40.30 C 356.74 40.099,357.317 39.550,357.328 39.28 C 357.33 39.204,357.444 39.032,357.580 38.90 C 357.71 38.761,357.921 38.522,358.038 38.37 C 358.42 37.854,360.000 36.630,360.000 36.85 C 360.00 36.971,360.167 36.901,360.405 36.68 C 360.63 36.469,360.771 36.199,360.725 36.08 C 360.66 35.920,360.750 35.885,361.029 35.95 C 361.24 36.006,361.363 35.991,361.298 35.92 C 361.18 35.793,362.292 34.678,362.542 34.67 C 362.61 34.668,362.667 34.599,362.667 34.52 C 362.67 34.434,363.004 34.034,363.416 33.63 C 363.83 33.221,364.110 32.826,364.041 32.75 C 363.97 32.675,363.996 32.658,364.094 32.71 C 364.35 32.862,366.750 30.504,366.750 30.10 C 366.75 30.016,366.880 29.929,367.038 29.91 C 367.34 29.862,367.833 29.445,367.833 29.24 C 367.83 29.169,367.683 29.251,367.500 29.42 C 367.18 29.709,367.019 29.562,367.311 29.24 C 367.39 29.155,367.582 28.746,367.736 28.33 C 368.08 27.404,368.657 26.603,368.663 27.04 C 368.67 27.202,368.742 27.333,368.833 27.33 C 369.04 27.333,369.043 27.225,368.830 26.83 C 368.69 26.560,368.726 26.491,369.067 26.41 C 369.29 26.349,369.612 26.141,369.779 25.94 L 370.08 25.58 369.67 25.91 C 369.31 26.196,369.321 26.166,369.733 25.71 C 370.01 25.403,370.356 25.194,370.548 25.21 C 370.98 25.261,371.453 24.432,371.371 23.76 C 371.32 23.365,371.350 23.307,371.486 23.50 C 371.58 23.637,371.663 23.671,371.664 23.57 C 371.67 23.479,371.573 23.305,371.458 23.19 C 371.34 23.072,371.325 22.990,371.417 23.01 C 371.77 23.075,371.944 22.990,371.944 22.75 C 371.94 22.372,372.028 22.314,367.655 25.72 M368.377 28.02 C 368.19 28.520,368.193 28.545,368.434 28.30 C 368.58 28.158,368.673 27.910,368.641 27.75 C 368.60 27.555,368.519 27.637,368.377 28.02 M169.455 155.62 C 169.75 155.657,170.275 155.658,170.621 155.62 C 170.97 155.586,170.725 155.555,170.083 155.56 C 169.44 155.554,169.159 155.583,169.455 155.62" stroke="none" fill="#ffffff" fill-rule="evenodd"/><path id="path4" d="M82.208 112.96 C 82.64 112.990,83.356 112.990,83.792 112.96 C 84.23 112.922,83.871 112.893,83.000 112.89 C 82.13 112.893,81.773 112.922,82.208 112.96" stroke="none" fill="#89a7ec" fill-rule="evenodd"/></g></svg>